<svg width="18" height="14" viewBox="0 0 18 14" fill="none" xmlns="http://www.w3.org/2000/svg">
<path d="M0.819336 8.99966L8.53312 12.8566C8.63807 12.909 8.69054 12.9353 8.74558 12.9456C8.79432 12.9547 8.84435 12.9547 8.8931 12.9456C8.94813 12.9353 9.00061 12.909 9.10555 12.8566L16.8193 8.99966M0.819336 4.99966L8.53312 1.14277C8.63807 1.0903 8.69054 1.06406 8.74558 1.05373C8.79432 1.04459 8.84435 1.04459 8.8931 1.05373C8.94813 1.06406 9.00061 1.0903 9.10555 1.14277L16.8193 4.99966L9.10555 8.85655C9.00061 8.90902 8.94813 8.93526 8.8931 8.94559C8.84435 8.95473 8.79432 8.95473 8.74558 8.94559C8.69054 8.93526 8.63807 8.90902 8.53312 8.85655L0.819336 4.99966Z" stroke="white" stroke-width="1.5" stroke-linecap="round" stroke-linejoin="round"/>
</svg>
