<svg width="159" height="118" viewBox="0 0 159 118" fill="none" xmlns="http://www.w3.org/2000/svg">
<circle cx="71.857" cy="43.5911" r="41.9195" fill="#F1F1F1" stroke="#C4C4C4" stroke-width="2"/>
<circle cx="71.856" cy="43.5911" r="29.6568" fill="#FFFEFF" stroke="#C4C4C4" stroke-width="2"/>
<path d="M71.8537 21.0527C71.8537 20.6025 71.4884 20.2361 71.0385 20.2518C65.4059 20.4483 60.0234 22.6768 55.8952 26.5407C51.7669 30.4045 49.1876 35.6279 48.6191 41.2352C48.5737 41.6831 48.9152 42.0718 49.3644 42.1015C49.8136 42.1313 50.2003 41.7909 50.2469 41.3431C50.7872 36.1487 53.183 31.3121 57.0092 27.7309C60.8354 24.1498 65.8198 22.0789 71.0386 21.8831C71.4884 21.8662 71.8537 21.5029 71.8537 21.0527Z" fill="#C4C4C4"/>
<rect x="104.531" y="89.1049" width="14" height="42" rx="7" transform="rotate(-45 104.531 89.1049)" fill="#F1F1F1" stroke="#C4C4C4" stroke-width="2"/>
<rect x="119.309" y="92.4751" width="1.94836" height="16.3364" rx="0.974179" transform="rotate(-45 119.309 92.4751)" fill="white"/>
<rect x="103.109" y="79.1976" width="2" height="8" transform="rotate(-45 103.109 79.1976)" fill="#C4C4C4"/>
<rect x="124.332" y="38.5549" width="20" height="2" rx="1" fill="#C4C4C4"/>
<rect x="0.667969" y="55.0997" width="20" height="2" rx="1" fill="#C4C4C4"/>
<rect x="148.332" y="38.5549" width="10" height="2" rx="1" fill="#C4C4C4"/>
<rect x="129.332" y="45.8929" width="10" height="2" rx="1" fill="#C4C4C4"/>
<rect x="5.66797" y="62.4377" width="10" height="2" rx="1" fill="#C4C4C4"/>
</svg>
