<svg width="192" height="192" viewBox="0 0 192 192" fill="none" xmlns="http://www.w3.org/2000/svg">
<path d="M191.201 164.277C195.832 155.113 182.597 109.292 90.8305 109.292C24.5935 109.292 -5.80744 146.797 0.913605 165.805" fill="url(#paint0_radial_554_16133)"/>
<mask id="mask0_554_16133" style="mask-type:luminance" maskUnits="userSpaceOnUse" x="0" y="109" width="192" height="57">
<path d="M191.201 164.277C195.832 155.113 182.597 109.292 90.8305 109.292C24.5935 109.292 -5.80744 146.797 0.913605 165.805" fill="white"/>
</mask>
<g mask="url(#mask0_554_16133)">
<ellipse opacity="0.671968" cx="76.6766" cy="149.756" rx="5.04673" ry="2.80321" fill="url(#paint1_linear_554_16133)"/>
<ellipse opacity="0.256348" cx="128.187" cy="130.709" rx="7.96262" ry="4.37301" fill="url(#paint2_linear_554_16133)"/>
<ellipse opacity="0.729957" cx="37.57" cy="119.047" rx="7.96262" ry="4.37301" fill="url(#paint3_linear_554_16133)"/>
</g>
<path opacity="0.5" d="M74.8057 119.454C74.8057 119.454 94.3328 128.636 102.08 132.16C108.216 134.951 139.811 143.88 143.575 141.342C147.34 138.804 155.65 131.838 152.906 127.066C150.163 122.293 135.734 113.724 128.833 112.472C121.932 111.22 102.2 116.911 102.2 116.911L85.3691 119.802L74.8057 119.454Z" fill="url(#paint4_linear_554_16133)"/>
<path d="M89.2794 78.3999L67.5194 94.3999L73.3214 80.7876L95.1133 66.9529L89.2794 78.3999Z" fill="#E2E7EC"/>
<path d="M72.96 81.0689L95.1138 67.2002V105.024L74.8061 119.262L72.96 81.0689Z" fill="#D8DFE6"/>
<path d="M95.1133 67.2002L129.083 75.1474V112.985L95.1133 105.038V67.2002Z" fill="#E9EFF1"/>
<path d="M72.96 81.0669L107.668 89.178V127.015L74.8061 119.469L72.96 81.0669Z" fill="#E8EAEB"/>
<path d="M106.929 89.1919L129.083 75.3232V113.147L106.929 127.016V89.1919Z" fill="#D8DFE6"/>
<mask id="mask1_554_16133" style="mask-type:luminance" maskUnits="userSpaceOnUse" x="106" y="75" width="24" height="53">
<path d="M106.929 89.1919L129.083 75.3232V113.147L106.929 127.016V89.1919Z" fill="white"/>
</mask>
<g mask="url(#mask1_554_16133)">
<rect x="115.157" y="72.1714" width="6.96264" height="57.9963" fill="#C7D0D9"/>
</g>
<path d="M116.891 100.431L138.683 86.5962L128.721 75.3232L106.929 89.1579L116.891 100.431Z" fill="#E2E7EC"/>
<path opacity="0.5" d="M55.9655 120.408L90.2394 137.921L93.4394 128.641L59.8114 117.455L55.9655 120.408Z" fill="url(#paint5_linear_554_16133)"/>
<path d="M55.03 91.619L66.8484 92.5507L64.224 118.258C64.224 118.258 63.9941 118.515 63.4365 118.415C62.8789 118.315 62.294 118.005 62.294 118.005L60.5363 97.5685C60.5363 97.5685 59.5197 104.795 59.5907 106.828C59.6442 108.36 60.1679 110.228 60.4482 111.827C60.6894 113.202 61.197 116.49 61.197 116.49C61.197 116.49 60.5973 116.764 60.2783 116.825C59.9593 116.887 59.5504 116.547 59.5504 116.547C59.5504 116.547 55.4067 108.504 55.3534 106.976C55.3001 105.448 55.03 91.619 55.03 91.619Z" fill="url(#paint6_linear_554_16133)"/>
<path d="M59.3667 116.51C59.3667 116.51 58.8403 117.457 58.1864 118.035C57.5325 118.613 56.2421 119.303 55.948 119.617C55.6538 119.93 55.975 120.392 55.975 120.392L59.1376 120.282L61.6647 118.144L61.3115 116.107L59.3667 116.51Z" fill="#677285"/>
<path d="M64.5216 117.607L65.2599 119.655C65.2599 119.655 64.0475 120.594 62.3723 120.855C60.6971 121.116 59.5428 120.715 59.5428 120.715C59.5428 120.715 59.2403 120.105 59.8104 119.845C60.0722 119.725 60.659 119.228 61.1742 118.591C61.4068 118.304 62.2829 117.685 62.2829 117.685L64.5216 117.607Z" fill="#677285"/>
<path d="M69.8166 78.2162C69.8166 78.2162 70.7852 79.6898 71.3792 79.2955C71.9732 78.9012 75.6812 75.1006 75.6812 75.1006C75.6812 75.1006 76.7842 74.2515 76.9882 74.4533C77.1922 74.6552 76.6203 75.1006 76.6203 75.1006C76.6203 75.1006 77.824 75.2188 78.2 75.2188C78.5761 75.2188 79.3672 75.8193 78.8499 76.0214C78.3327 76.2234 76.3261 76.2733 76.3261 76.2733C76.3261 76.2733 73.2799 82.0341 71.6925 82.4426C70.105 82.8511 67.918 80.5409 67.918 80.5409L69.8166 78.2162Z" fill="#FDE7E6"/>
<path d="M54.3388 78.3215C54.3388 78.3215 53.7037 79.622 53.1282 79.31C52.5526 78.998 49.3233 75.5924 49.3233 75.5924C49.3233 75.5924 48.2479 74.9337 47.9849 75.0523C47.7219 75.1708 48.3702 75.5924 48.3702 75.5924C48.3702 75.5924 46.788 75.7208 46.4904 75.8404C46.1928 75.96 45.8461 76.3269 46.2961 76.4937C46.7461 76.6605 48.4688 76.7791 48.4688 76.7791C48.4688 76.7791 50.8636 81.5113 52.678 82.0647C54.4924 82.618 56.0381 80.4377 56.0381 80.4377L54.3388 78.3215Z" fill="#FDE7E6"/>
<path d="M60.2134 74.3392V72.0142C60.2134 72.0142 59.0079 72.0752 58.5179 71.268C58.0278 70.4608 57.8955 68.1701 57.8955 68.1701L58.2647 67.108L61.8957 66.9546L63.8032 68.5801L62.9151 70.1488L62.7457 70.4503L63.5923 74.0154L60.2134 74.3392Z" fill="#FDE7E6"/>
<mask id="mask2_554_16133" style="mask-type:luminance" maskUnits="userSpaceOnUse" x="57" y="66" width="7" height="9">
<path d="M60.2134 74.3392V72.0142C60.2134 72.0142 59.0079 72.0752 58.5179 71.268C58.0278 70.4608 57.8955 68.1701 57.8955 68.1701L58.2647 67.108L61.8957 66.9546L63.8032 68.5801L62.9151 70.1488L62.7457 70.4503L63.5923 74.0154L60.2134 74.3392Z" fill="white"/>
</mask>
<g mask="url(#mask2_554_16133)">
<path d="M62.5756 69.8051C61.5025 71.1397 59.6465 72.0724 59.4049 72.0724C59.1633 72.0724 60.7544 73.7462 60.7544 73.7462L62.0489 74.3396L63.8864 73.9501L64.5423 72.0724L63.3843 69.942C63.3843 69.942 63.6486 68.4706 62.5756 69.8051Z" fill="url(#paint7_linear_554_16133)"/>
</g>
<path d="M53.5674 79.2557L55.3517 81.6591L56.4897 80.4574C56.4897 80.4574 55.6242 85.2028 55.3517 87.4787C55.0792 89.7546 55.0285 92.0214 55.0285 92.0214C55.0285 92.0214 57.8856 93.0822 60.0155 93.2606C62.1453 93.4391 67.1035 92.9796 67.1035 92.9796L66.4635 79.6217L68.3205 81.3457L70.501 78.828C70.501 78.828 66.7475 73.0597 66.0376 72.7237C65.3278 72.3876 63.3546 72.7237 63.3546 72.7237C63.3546 72.7237 61.9544 74.3807 61.3867 74.4038C60.8189 74.4269 59.5594 72.7237 59.5594 72.7237C59.5594 72.7237 57.5472 72.4023 56.9622 73.0597C56.3771 73.7171 53.5674 79.2557 53.5674 79.2557Z" fill="url(#paint8_linear_554_16133)"/>
<path d="M57.8955 68.1956C57.8955 68.1956 58.3234 67.1158 58.882 67.304C59.4106 67.482 59.8684 67.9056 60.5261 68.1045C61.1837 68.3034 61.2564 67.41 61.7033 67.5609C62.1502 67.7117 61.8552 69.026 62.1702 69.2707C62.4852 69.5154 62.4852 67.5609 63.1566 68.0871C63.8281 68.6133 62.4561 70.0943 62.4561 70.0943C62.4561 70.0943 62.632 71.0047 62.6884 71.0666C62.7448 71.1285 62.7384 70.4043 62.7384 70.4043C62.7384 70.4043 63.3796 70.1581 63.6529 69.0478C63.9262 67.9375 64.0444 67.4955 63.6529 66.6887C63.2615 65.882 63.1499 65.2502 62.1702 64.8696C61.1905 64.4891 60.4472 64.6379 59.7624 64.8696C59.0777 65.1014 58.5815 65.5618 58.2648 66.0199C57.5263 67.1074 57.8955 68.1956 57.8955 68.1956Z" fill="#4D364F"/>
<path fill-rule="evenodd" clip-rule="evenodd" d="M123.914 39.7182C123.136 39.9561 107.027 49.5947 107.027 49.5947L111.728 49.9452L115.069 53.6372C115.069 53.6372 124.692 39.4804 123.914 39.7182Z" fill="#E8EAEB"/>
<mask id="mask3_554_16133" style="mask-type:luminance" maskUnits="userSpaceOnUse" x="107" y="39" width="17" height="15">
<path fill-rule="evenodd" clip-rule="evenodd" d="M123.914 39.7182C123.136 39.9561 107.027 49.5947 107.027 49.5947L111.728 49.9452L115.069 53.6372C115.069 53.6372 124.692 39.4804 123.914 39.7182Z" fill="white"/>
</mask>
<g mask="url(#mask3_554_16133)">
<path fill-rule="evenodd" clip-rule="evenodd" d="M111.728 49.9455L123.914 39.7185L115.069 53.6375L111.728 49.9455Z" fill="#D8DFE6"/>
</g>
<path fill-rule="evenodd" clip-rule="evenodd" d="M121.495 50.8872L115.846 50.2968L123.921 39.8179L121.495 50.8872Z" fill="#E8EAEB"/>
<path fill-rule="evenodd" clip-rule="evenodd" d="M111.094 57.8682C111.447 57.1213 111.802 56.3482 112.16 55.5488L112.744 55.8103C112.385 56.6136 112.028 57.3907 111.673 58.1417L111.094 57.8682ZM108.795 62.4251C109.185 61.7054 109.579 60.9517 109.975 60.1638L110.547 60.4515C110.147 61.245 109.751 62.0046 109.358 62.73L108.795 62.4251ZM107.541 64.642C107.086 65.4086 106.636 66.127 106.19 66.7973L106.723 67.1516C107.175 66.472 107.631 65.7443 108.091 64.9685L107.541 64.642ZM103.068 70.7845C103.608 70.2246 104.155 69.5856 104.711 68.8676L105.217 69.2593C104.648 69.995 104.085 70.6514 103.529 71.2287L103.068 70.7845ZM101.188 72.4382C100.44 72.9743 99.7113 73.3451 99.0029 73.5524L99.1826 74.1666C99.9642 73.9379 100.757 73.5346 101.561 72.9584L101.188 72.4382ZM94.4896 72.5057C95.1934 73.0732 95.9089 73.4449 96.6371 73.6242L96.4841 74.2456C95.6606 74.0429 94.8616 73.6278 94.0879 73.0039L94.4896 72.5057ZM92.7647 70.6879C92.725 70.636 92.6854 70.5834 92.6459 70.5302C92.1307 69.8367 91.7565 69.1786 91.5178 68.557L90.9204 68.7863C91.1811 69.4654 91.5839 70.1738 92.1321 70.9118C92.1734 70.9674 92.2147 71.0222 92.2561 71.0764L92.7647 70.6879ZM92.6113 64.2498C91.92 64.8208 91.4754 65.4762 91.294 66.2074L90.6729 66.0533C90.8892 65.1809 91.412 64.4103 92.2038 63.7563L92.6113 64.2498ZM94.7494 63.0473C95.4695 62.7661 96.2793 62.5367 97.1573 62.3636L97.0336 61.7357C96.1197 61.9159 95.2737 62.1555 94.5166 62.4511L94.7494 63.0473ZM102.168 61.9975C101.316 61.9672 100.468 61.9812 99.6416 62.0394L99.5966 61.401C100.446 61.3412 101.317 61.3268 102.191 61.3579L102.168 61.9975ZM104.715 62.2218C105.573 62.3439 106.403 62.5113 107.187 62.721L107.352 62.1027C106.543 61.8862 105.688 61.7139 104.806 61.5882L104.715 62.2218ZM111.689 64.8301C111.104 64.3539 110.39 63.9263 109.565 63.5548L109.828 62.9713C110.701 63.3646 111.462 63.8204 112.093 64.3337L111.689 64.8301ZM113.214 66.7525C113.368 67.1112 113.467 67.4849 113.509 67.8736C113.553 68.2848 113.568 68.6981 113.555 69.1137L114.194 69.1345C114.209 68.6893 114.193 68.2463 114.145 67.8054C114.097 67.3526 113.982 66.9167 113.802 66.4995L113.214 66.7525ZM112.189 73.8821C112.601 73.1051 112.92 72.3363 113.146 71.5757L113.759 71.7581C113.521 72.5604 113.186 73.3683 112.755 74.1819L112.189 73.8821ZM110.834 76.022C110.36 76.6668 109.825 77.3168 109.228 77.9718L109.701 78.403C110.313 77.7316 110.863 77.0643 111.35 76.4008L110.834 76.022ZM105.553 81.4346C106.232 80.8722 106.868 80.3132 107.461 79.7576L107.899 80.2246C107.296 80.7894 106.65 81.357 105.961 81.9276L105.553 81.4346ZM103.536 83.0195C102.878 83.5117 102.188 84.0064 101.465 84.5035L101.828 85.0308C102.557 84.5289 103.255 84.0293 103.919 83.5319L103.536 83.0195ZM97.9866 86.7624C98.4413 86.4826 98.886 86.2035 99.3209 85.9251L99.6659 86.4641C99.2279 86.7445 98.78 87.0256 98.3221 87.3075L97.9866 86.7624Z" fill="#C7D0D9"/>
<defs>
<radialGradient id="paint0_radial_554_16133" cx="0" cy="0" r="1" gradientUnits="userSpaceOnUse" gradientTransform="translate(83.271 128.891) rotate(-90) scale(32.8578 343.167)">
<stop stop-color="#EBEDF0" stop-opacity="0.24"/>
<stop offset="0.536775" stop-color="#EBEDF0" stop-opacity="0.845525"/>
<stop offset="1" stop-color="#E0E4E7" stop-opacity="0.01"/>
</radialGradient>
<linearGradient id="paint1_linear_554_16133" x1="72.6144" y1="149.013" x2="74.1519" y2="152.301" gradientUnits="userSpaceOnUse">
<stop stop-color="#E1E7EA"/>
<stop offset="1" stop-color="#D0D6DC"/>
</linearGradient>
<linearGradient id="paint2_linear_554_16133" x1="121.501" y1="130.3" x2="124.315" y2="136.168" gradientUnits="userSpaceOnUse">
<stop stop-color="#E1E7EA"/>
<stop offset="1" stop-color="#D0D6DC"/>
</linearGradient>
<linearGradient id="paint3_linear_554_16133" x1="32.4929" y1="119.118" x2="34.0848" y2="125.46" gradientUnits="userSpaceOnUse">
<stop stop-color="#FBFBFB"/>
<stop offset="1" stop-color="#D9DFE3"/>
</linearGradient>
<linearGradient id="paint4_linear_554_16133" x1="71.9363" y1="122.638" x2="77.6166" y2="148.111" gradientUnits="userSpaceOnUse">
<stop stop-color="#C4CDD1"/>
<stop offset="1" stop-color="#C6CFD3" stop-opacity="0.01"/>
</linearGradient>
<linearGradient id="paint5_linear_554_16133" x1="54.7762" y1="125.203" x2="61.3655" y2="142.4" gradientUnits="userSpaceOnUse">
<stop stop-color="#C4CDD1"/>
<stop offset="1" stop-color="#C6CFD3" stop-opacity="0.01"/>
</linearGradient>
<linearGradient id="paint6_linear_554_16133" x1="67.7028" y1="118.305" x2="66.7637" y2="91.4126" gradientUnits="userSpaceOnUse">
<stop stop-color="#A1A7B8"/>
<stop offset="1" stop-color="#7B8195"/>
</linearGradient>
<linearGradient id="paint7_linear_554_16133" x1="63.0841" y1="72.7785" x2="63.0841" y2="70.5257" gradientUnits="userSpaceOnUse">
<stop stop-color="#FBD8D6"/>
<stop offset="1" stop-color="#EAC0BE" stop-opacity="0.7"/>
</linearGradient>
<linearGradient id="paint8_linear_554_16133" x1="45.001" y1="82.0322" x2="62.8044" y2="100.813" gradientUnits="userSpaceOnUse">
<stop stop-color="#E5E9F0"/>
<stop offset="1" stop-color="#D2DAE8"/>
</linearGradient>
</defs>
</svg>
