<svg width="50" height="40" viewBox="0 0 50 40" fill="none" xmlns="http://www.w3.org/2000/svg">
<rect x="0.5" width="49.2989" height="40" rx="4" fill="#F2E5E6"/>
<path d="M15.5 19H14.75V19.5497L15.2742 19.7152L15.5 19ZM34.5 19L34.7259 19.7152L35.25 19.5497V19.0001L34.5 19ZM34.5004 14L35.2504 14.0001C35.2504 13.8011 35.1714 13.6104 35.0308 13.4697C34.8901 13.329 34.6993 13.25 34.5004 13.25V14ZM15.5 14V13.25C15.0858 13.25 14.75 13.5858 14.75 14H15.5ZM15.5 14.75H34.5004V13.25H15.5V14.75ZM14.75 14V19H16.25V14H14.75ZM35.25 19.0001L35.2504 14.0001L33.7504 13.9999L33.75 18.9999L35.25 19.0001ZM34.2741 18.2848L26.7741 20.6533L27.2259 22.0837L34.7259 19.7152L34.2741 18.2848ZM23.2265 20.6533L15.7258 18.2848L15.2742 19.7152L22.7748 22.0837L23.2265 20.6533Z" fill="#7D0003"/>
<path d="M16.4993 19.5L16.499 29.5H33.499V19.5" stroke="#7D0003" stroke-width="1.5" stroke-linejoin="round"/>
<path d="M28.5 14V10.5H21.5V14" stroke="#7D0003" stroke-width="1.5" stroke-linejoin="round"/>
<path d="M27 19.5H23V21.5C23 22.6046 23.8954 23.5 25 23.5C26.1046 23.5 27 22.6046 27 21.5V19.5Z" stroke="#7D0003" stroke-width="1.5"/>
</svg>
