<svg width="204" height="44" viewBox="0 0 204 44" fill="none" xmlns="http://www.w3.org/2000/svg">
<path d="M62.1355 17.1919C62.1355 18.2378 62.9609 19.0836 63.9795 19.0836H75.2565C75.5673 19.0836 75.8576 18.9224 76.0276 18.6563C76.1975 18.3902 76.2257 18.0532 76.1023 17.7619L71.5325 6.99082C71.2402 6.30039 70.575 5.8537 69.8409 5.8537H63.9795C62.9609 5.8537 62.1355 6.6995 62.1355 7.7434V17.1919ZM85.5237 29.4779H80.0896V32.7067H85.5237V29.4779ZM61.347 3.25415H70.913C72.0394 3.25415 73.058 3.9203 73.5106 4.95158L80.8771 21.7598L85.3518 26.3695C85.8665 26.8978 86.1539 27.6066 86.1539 28.3437V34.8314H87.8086V37.8252H86.1539H78.9602H77.8852C77.8852 34.0468 74.8118 30.9733 71.0343 30.9733C67.2559 30.9733 64.1825 34.0468 64.1825 37.8252H59.4573V5.14384C59.4573 4.09995 60.3031 3.25415 61.347 3.25415Z" fill="#F68815"/>
<path d="M14.0986 0.262867H25.3145L8.13138 35.3408L0.000617981 29.4785L14.0986 0.262867Z" fill="#3D8356"/>
<path d="M38.5517 3.72689H42.6807V26.5732H38.5517V3.72689Z" fill="#3D8356"/>
<path d="M28.8642 3.72689H32.9941V26.5732H28.8642V3.72689Z" fill="#3D8356"/>
<path d="M48.2402 3.72689H52.3701V26.5732H48.2402V3.72689Z" fill="#3D8356"/>
<path d="M27.9191 27.5193H33.9388V2.7803H27.9191V27.5193ZM37.6046 27.5193H43.6242V2.7803H37.6046V27.5193ZM47.3007 27.5193H53.3213V2.7803H47.3007V27.5193ZM54.8896 0.266205C55.9374 0.266205 56.7793 1.10715 56.7793 2.1559V37.8301H51.1937C51.1937 34.0497 48.1135 30.9792 44.3428 30.9792C40.5624 30.9792 37.4919 34.0497 37.4919 37.8301H29.9399C29.9399 34.0497 26.8597 30.9792 23.09 30.9792C19.3096 30.9792 16.2391 34.0497 16.2391 37.8301H11.5799L8.90557 35.9025L26.3683 0.266205H54.8896Z" fill="#3D8356"/>
<path d="M44.343 40.9008C46.0346 40.9008 47.4145 39.5219 47.4145 37.8303C47.4145 36.129 46.0346 34.7578 44.343 34.7578C42.6417 34.7578 41.2715 36.129 41.2715 37.8303C41.2715 39.5219 42.6417 40.9008 44.343 40.9008ZM44.343 31.9233C47.6038 31.9233 50.249 34.5597 50.249 37.8303C50.249 41.0902 47.6038 43.7363 44.343 43.7363C41.0734 43.7363 38.4369 41.0902 38.4369 37.8303C38.4369 34.5597 41.0734 31.9233 44.343 31.9233Z" fill="#F68815"/>
<path d="M23.0901 40.9008C24.7817 40.9008 26.1615 39.5219 26.1615 37.8303C26.1615 36.129 24.7817 34.7578 23.0901 34.7578C21.3897 34.7578 20.0186 36.129 20.0186 37.8303C20.0186 39.5219 21.3897 40.9008 23.0901 40.9008ZM23.0901 31.9233C26.3499 31.9233 28.9961 34.5597 28.9961 37.8303C28.9961 41.0902 26.3499 43.7363 23.0901 43.7363C19.8195 43.7363 17.184 41.0902 17.184 37.8303C17.184 34.5597 19.8195 31.9233 23.0901 31.9233Z" fill="#F68815"/>
<path d="M71.0344 40.8969C72.7309 40.8969 74.1059 39.5219 74.1059 37.8254C74.1059 36.1289 72.7309 34.7539 71.0344 34.7539C69.3389 34.7539 67.9639 36.1289 67.9639 37.8254C67.9639 39.5219 69.3389 40.8969 71.0344 40.8969ZM71.0344 31.9184C74.2962 31.9184 76.9414 34.5636 76.9414 37.8254C76.9414 41.0872 74.2962 43.7314 71.0344 43.7314C67.7726 43.7314 65.1283 41.0872 65.1283 37.8254C65.1283 34.5636 67.7726 31.9184 71.0344 31.9184Z" fill="#3D8356"/>
<path d="M107.005 21.1878H116.801C116.801 21.4325 116.782 21.6772 116.744 21.9218C116.725 22.1477 116.697 22.4112 116.659 22.7123C116.434 24.105 116.048 25.3283 115.502 26.3822C114.975 27.4361 114.316 28.3771 113.526 29.2052C111.456 31.3695 108.708 32.4517 105.283 32.4517C104.116 32.4517 102.987 32.2447 101.895 31.8306C100.804 31.3978 99.8343 30.7861 98.9874 29.9957C98.1593 29.1864 97.4912 28.2077 96.983 27.0597C96.4749 25.9117 96.2208 24.6131 96.2208 23.164C96.2208 21.5831 96.5125 20.0775 97.096 18.6471C97.6982 17.2168 98.5357 15.9653 99.6084 14.8925C100.7 13.8009 101.999 12.9352 103.504 12.2953C105.029 11.6555 106.722 11.3355 108.586 11.3355C109.32 11.3355 110.035 11.4108 110.731 11.5614C111.427 11.7119 112.077 11.9189 112.679 12.1824C113.281 12.4459 113.827 12.7753 114.316 13.1705C114.806 13.5469 115.21 13.9703 115.53 14.4408L113.413 16.2193C112.942 15.4665 112.227 14.8831 111.267 14.4691C110.326 14.0362 109.291 13.8198 108.162 13.8198C106.864 13.8198 105.65 14.055 104.52 14.5255C103.391 14.996 102.403 15.6453 101.556 16.4734C100.728 17.3015 100.079 18.2801 99.6084 19.4093C99.1379 20.5385 98.9027 21.7619 98.9027 23.0793C98.9027 24.1897 99.0815 25.1777 99.4391 26.0434C99.8155 26.8903 100.314 27.6055 100.935 28.1889C101.556 28.7724 102.271 29.2146 103.081 29.5157C103.89 29.8169 104.737 29.9674 105.621 29.9674C106.864 29.9674 107.983 29.7604 108.981 29.3464C109.997 28.9135 110.882 28.3018 111.634 27.5114C112.613 26.4951 113.319 25.1965 113.752 23.6156H106.581L107.005 21.1878ZM121.763 11.7872H128.453C129.244 11.7872 129.978 11.9189 130.655 12.1824C131.333 12.4271 131.916 12.7847 132.406 13.2552C132.914 13.7257 133.3 14.2997 133.563 14.9772C133.845 15.6359 133.987 16.3793 133.987 17.2074C133.987 18.0355 133.845 18.8071 133.563 19.5223C133.281 20.2186 132.886 20.8491 132.377 21.4137C131.869 21.9595 131.248 22.43 130.514 22.8252C129.799 23.2016 128.999 23.4745 128.115 23.6439L128.03 23.7286L132.208 31.8871L132.18 32H129.244L125.179 23.8132H122.243L120.775 32H118.178L121.763 11.7872ZM126.844 21.3855C127.447 21.3855 128.021 21.3008 128.566 21.1314C129.112 20.9432 129.583 20.6797 129.978 20.3409C130.392 19.9834 130.712 19.5505 130.938 19.0423C131.182 18.5154 131.305 17.9131 131.305 17.2356C131.305 16.4264 131.022 15.73 130.458 15.1466C129.912 14.5632 129.103 14.2715 128.03 14.2715H123.908L122.666 21.3855H126.844ZM140.229 14.2715L139.1 20.6797H147.399L146.976 23.1075H138.676L137.547 29.5157H146.75L146.298 32H134.498L138.084 11.7872H149.884L149.432 14.2715H140.229ZM155.53 14.2715L154.4 20.6797H162.7L162.277 23.1075H153.977L152.848 29.5157H162.051L161.599 32H149.799L153.384 11.7872H165.184L164.733 14.2715H155.53ZM168.685 11.7872H171.649L178.876 27.5114H178.989L179.581 23.6156L181.67 11.7872H184.268L180.682 32H178.198L170.604 15.5136H170.491L169.927 19.4093L167.697 32H165.099L168.685 11.7872ZM194.269 11.7872H197.205L201.242 32H198.447L197.488 26.5233H188.99L186.026 32H183.09L194.269 11.7872ZM197.008 24.0956L195.314 14.9772H195.201L190.289 24.0956H197.008Z" fill="#3D8356"/>
</svg>
