<svg width="18" height="18" viewBox="0 0 18 18" fill="none" xmlns="http://www.w3.org/2000/svg">
<path d="M3.486 13.4447C3.486 13.757 3.486 13.9131 3.49993 14.0488C3.61556 15.1757 4.43054 16.1066 5.53228 16.3701C5.66497 16.4019 5.81978 16.4225 6.12928 16.4638L11.9888 17.2451C13.6567 17.4674 14.4907 17.5786 15.138 17.3213C15.7062 17.0953 16.1796 16.6809 16.4787 16.1474C16.8193 15.5399 16.8193 14.6985 16.8193 13.0158V4.98466C16.8193 3.30196 16.8193 2.46061 16.4787 1.85303C16.1796 1.31959 15.7062 0.905164 15.138 0.679203C14.4907 0.421835 13.6567 0.533031 11.9888 0.755423L6.12928 1.53669C5.81975 1.57796 5.66498 1.5986 5.53228 1.63034C4.43054 1.89389 3.61555 2.82475 3.49993 3.95165C3.486 4.08739 3.486 4.24352 3.486 4.55579M8.81934 5.44468L12.3749 9.00024M12.3749 9.00024L8.81934 12.5558M12.3749 9.00024H0.819336" stroke="#FF0006" stroke-linecap="round" stroke-linejoin="round"/>
</svg>
