<svg width="50" height="40" viewBox="0 0 50 40" fill="none" xmlns="http://www.w3.org/2000/svg">
<rect width="49.0775" height="40" rx="4" fill="#EAEBE8"/>
<path d="M34 29C33.7284 29.2035 33.4288 29.3807 33.1062 29.5273C32.0659 30 30.6917 30 27.9432 30H22.0568C19.3083 30 17.9341 30 16.8938 29.5273C16.5712 29.3807 16.2716 29.2035 16 29" stroke="#313715" stroke-width="1.5" stroke-linecap="round"/>
<path d="M15 18C15 14.4625 15 12.6938 16.0528 11.5129C16.2212 11.324 16.4068 11.1494 16.6075 10.9909C17.8621 10 19.7414 10 23.5 10H26.5C30.2586 10 32.1379 10 33.3925 10.9909C33.5932 11.1494 33.7788 11.324 33.9472 11.5129C35 12.6938 35 14.4625 35 18C35 21.5375 35 23.3062 33.9472 24.4871C33.7788 24.676 33.5932 24.8506 33.3925 25.0091C32.1379 26 30.2586 26 26.5 26H23.5C19.7414 26 17.8621 26 16.6075 25.0091C16.4068 24.8506 16.2212 24.676 16.0528 24.4871C15 23.3062 15 21.5375 15 18Z" stroke="#313715" stroke-width="1.5" stroke-linecap="round" stroke-linejoin="round"/>
<path d="M31.5002 18H31.4912" stroke="#313715" stroke-width="2" stroke-linecap="round" stroke-linejoin="round"/>
<path d="M18.5002 18H18.4912" stroke="#313715" stroke-width="2" stroke-linecap="round" stroke-linejoin="round"/>
<path d="M27.5508 18C27.5508 19.3807 26.4315 20.5 25.0508 20.5C23.6701 20.5 22.5508 19.3807 22.5508 18C22.5508 16.6193 23.6701 15.5 25.0508 15.5C26.4315 15.5 27.5508 16.6193 27.5508 18Z" stroke="#313715" stroke-width="1.5"/>
</svg>
