<svg width="18" height="18" viewBox="0 0 18 18" fill="none" xmlns="http://www.w3.org/2000/svg">
<path d="M8.81934 11.4C10.1448 11.4 11.2193 10.3255 11.2193 9C11.2193 7.67452 10.1448 6.6 8.81934 6.6C7.49385 6.6 6.41934 7.67452 6.41934 9C6.41934 10.3255 7.49385 11.4 8.81934 11.4Z" stroke="white" stroke-linecap="round" stroke-linejoin="round"/>
<path d="M14.2012 11.1818C14.1043 11.4012 14.0755 11.6445 14.1182 11.8804C14.161 12.1164 14.2735 12.3341 14.4412 12.5055L14.4848 12.5491C14.62 12.6842 14.7273 12.8446 14.8005 13.0212C14.8737 13.1978 14.9114 13.387 14.9114 13.5782C14.9114 13.7693 14.8737 13.9586 14.8005 14.1352C14.7273 14.3118 14.62 14.4722 14.4848 14.6073C14.3497 14.7425 14.1893 14.8498 14.0127 14.923C13.8361 14.9962 13.6468 15.0339 13.4557 15.0339C13.2646 15.0339 13.0753 14.9962 12.8987 14.923C12.7221 14.8498 12.5617 14.7425 12.4266 14.6073L12.383 14.5636C12.2116 14.396 11.9939 14.2835 11.7579 14.2407C11.522 14.1979 11.2787 14.2268 11.0593 14.3236C10.8442 14.4158 10.6608 14.5689 10.5316 14.764C10.4023 14.9591 10.333 15.1878 10.3321 15.4218V15.5455C10.3321 15.9312 10.1788 16.3012 9.90604 16.574C9.63326 16.8468 9.26329 17 8.87752 17C8.49175 17 8.12178 16.8468 7.849 16.574C7.57622 16.3012 7.42297 15.9312 7.42297 15.5455V15.48C7.41734 15.2393 7.33942 15.0058 7.19934 14.81C7.05927 14.6141 6.86351 14.4649 6.63752 14.3818C6.41816 14.285 6.17483 14.2561 5.93891 14.2989C5.70298 14.3417 5.48528 14.4542 5.31388 14.6218L5.27025 14.6655C5.13516 14.8007 4.97474 14.908 4.79816 14.9812C4.62158 15.0544 4.4323 15.0921 4.24115 15.0921C4.05 15.0921 3.86073 15.0544 3.68415 14.9812C3.50757 14.908 3.34715 14.8007 3.21206 14.6655C3.07682 14.5304 2.96954 14.3699 2.89634 14.1934C2.82314 14.0168 2.78546 13.8275 2.78546 13.6364C2.78546 13.4452 2.82314 13.2559 2.89634 13.0794C2.96954 12.9028 3.07682 12.7424 3.21206 12.6073L3.2557 12.5636C3.42336 12.3922 3.53583 12.1745 3.57861 11.9386C3.62139 11.7027 3.59251 11.4594 3.4957 11.24C3.40351 11.0249 3.25043 10.8414 3.05531 10.7122C2.86019 10.583 2.63154 10.5137 2.39752 10.5127H2.27388C1.88811 10.5127 1.51814 10.3595 1.24536 10.0867C0.972582 9.81392 0.819336 9.44395 0.819336 9.05818C0.819336 8.67241 0.972582 8.30244 1.24536 8.02966C1.51814 7.75688 1.88811 7.60364 2.27388 7.60364H2.33934C2.58006 7.59801 2.81352 7.52009 3.00937 7.38001C3.20522 7.23993 3.3544 7.04417 3.43752 6.81818C3.53433 6.59882 3.56321 6.3555 3.52043 6.11957C3.47765 5.88365 3.36518 5.66595 3.19752 5.49455L3.15388 5.45091C3.01864 5.31582 2.91136 5.1554 2.83816 4.97882C2.76496 4.80224 2.72728 4.61297 2.72728 4.42182C2.72728 4.23067 2.76496 4.04139 2.83816 3.86481C2.91136 3.68824 3.01864 3.52782 3.15388 3.39273C3.28897 3.25749 3.44939 3.1502 3.62597 3.077C3.80255 3.00381 3.99182 2.96613 4.18297 2.96613C4.37412 2.96613 4.5634 3.00381 4.73998 3.077C4.91656 3.1502 5.07698 3.25749 5.21206 3.39273L5.2557 3.43636C5.4271 3.60403 5.6448 3.7165 5.88073 3.75928C6.11665 3.80205 6.35998 3.77317 6.57934 3.67636H6.63752C6.85262 3.58417 7.03608 3.4311 7.16529 3.23597C7.29451 3.04085 7.36386 2.81221 7.36479 2.57818V2.45455C7.36479 2.06878 7.51804 1.69881 7.79082 1.42603C8.0636 1.15325 8.43357 1 8.81934 1C9.20511 1 9.57507 1.15325 9.84785 1.42603C10.1206 1.69881 10.2739 2.06878 10.2739 2.45455V2.52C10.2748 2.75403 10.3442 2.98267 10.4734 3.17779C10.6026 3.37291 10.786 3.52599 11.0012 3.61818C11.2205 3.71499 11.4638 3.74387 11.6998 3.70109C11.9357 3.65832 12.1534 3.54585 12.3248 3.37818L12.3684 3.33455C12.5035 3.19931 12.6639 3.09202 12.8405 3.01882C13.0171 2.94562 13.2064 2.90795 13.3975 2.90795C13.5887 2.90795 13.7779 2.94562 13.9545 3.01882C14.1311 3.09202 14.2915 3.19931 14.4266 3.33455C14.5618 3.46963 14.6691 3.63005 14.7423 3.80663C14.8155 3.98321 14.8532 4.17249 14.8532 4.36364C14.8532 4.55479 14.8155 4.74406 14.7423 4.92064C14.6691 5.09722 14.5618 5.25764 14.4266 5.39273L14.383 5.43636C14.2153 5.60777 14.1028 5.82547 14.0601 6.06139C14.0173 6.29731 14.0462 6.54064 14.143 6.76V6.81818C14.2352 7.03329 14.3882 7.21674 14.5834 7.34596C14.7785 7.47518 15.0071 7.54452 15.2412 7.54545H15.3648C15.7506 7.54545 16.1205 7.6987 16.3933 7.97148C16.6661 8.24426 16.8193 8.61423 16.8193 9C16.8193 9.38577 16.6661 9.75574 16.3933 10.0285C16.1205 10.3013 15.7506 10.4545 15.3648 10.4545H15.2993C15.0653 10.4555 14.8367 10.5248 14.6415 10.654C14.4464 10.7833 14.2933 10.9667 14.2012 11.1818Z" stroke="white" stroke-linecap="round" stroke-linejoin="round"/>
</svg>
