<svg width="18" height="16" viewBox="0 0 18 16" fill="none" xmlns="http://www.w3.org/2000/svg">
<path d="M12.0193 1.5744C13.2047 2.16348 14.0193 3.38671 14.0193 4.8002C14.0193 6.21368 13.2047 7.43691 12.0193 8.02599M13.6193 12.2133C14.8285 12.7605 15.9174 13.6522 16.8193 14.8002M0.819336 14.8002C2.37653 12.8183 4.49068 11.6002 6.81934 11.6002C9.14799 11.6002 11.2621 12.8183 12.8193 14.8002M10.4193 4.8002C10.4193 6.78842 8.80756 8.4002 6.81934 8.4002C4.83111 8.4002 3.21934 6.78842 3.21934 4.8002C3.21934 2.81197 4.83111 1.2002 6.81934 1.2002C8.80756 1.2002 10.4193 2.81197 10.4193 4.8002Z" stroke="white" stroke-linecap="round" stroke-linejoin="round"/>
</svg>
